<svg xmlns="http://www.w3.org/2000/svg" width="28" height="21" viewBox="0 0 28 21"><defs><style>.a{fill:#fff;}</style></defs><path class="a" d="M18.2,18.5h2.1a.753.753,0,0,0,.7-.7V10.45a.753.753,0,0,0-.7-.7H18.2a.753.753,0,0,0-.7.7V17.8a.753.753,0,0,0,.7.7Zm5.25,0h2.1a.753.753,0,0,0,.7-.7V5.2a.753.753,0,0,0-.7-.7h-2.1a.753.753,0,0,0-.7.7V17.8a.753.753,0,0,0,.7.7ZM7.7,18.5H9.8a.753.753,0,0,0,.7-.7V13.95a.753.753,0,0,0-.7-.7H7.7a.753.753,0,0,0-.7.7V17.8a.753.753,0,0,0,.7.7Zm5.25,0h2.1a.753.753,0,0,0,.7-.7V6.95a.753.753,0,0,0-.7-.7h-2.1a.753.753,0,0,0-.7.7V17.8A.753.753,0,0,0,12.95,18.5ZM27.125,22H3.5V5.375A.875.875,0,0,0,2.625,4.5H.875A.875.875,0,0,0,0,5.375V23.75A1.75,1.75,0,0,0,1.75,25.5H27.125A.875.875,0,0,0,28,24.625v-1.75A.875.875,0,0,0,27.125,22Z" transform="translate(0 -4.5)"/></svg>