<svg xmlns="http://www.w3.org/2000/svg" width="19.02" height="19.02" viewBox="0 0 19.02 19.02"><defs><style>.a{fill:#fff;}</style></defs><path class="a" d="M12.885,3.375a9.51,9.51,0,1,0,9.51,9.51A9.509,9.509,0,0,0,12.885,3.375Zm2.41,12.953-2.41-2.41-2.41,2.41a.731.731,0,1,1-1.033-1.033l2.41-2.41-2.41-2.41a.731.731,0,0,1,1.033-1.033l2.409,2.41,2.409-2.41a.731.731,0,1,1,1.033,1.033l-2.409,2.409,2.41,2.41a.734.734,0,0,1,0,1.033A.726.726,0,0,1,15.294,16.328Z" transform="translate(-3.375 -3.375)"/></svg>